<?xml version="1.0" standalone="no"?>
<!DOCTYPE svg PUBLIC "-//W3C//DTD SVG 20010904//EN"
 "http://www.w3.org/TR/2001/REC-SVG-20010904/DTD/svg10.dtd">
<svg version="1.0" xmlns="http://www.w3.org/2000/svg"
 width="30px" height="30px" viewBox="0 0 32.000000 32.000000"
 preserveAspectRatio="xMidYMid meet">

<g transform="translate(0.000000,32.000000) scale(0.100000,-0.100000)"
fill="#ffffff" stroke="none">
<path d="M4 307 c-2 -7 -3 -78 -2 -157 l3 -145 155 0 155 0 0 155 0 155 -153
3 c-119 2 -154 0 -158 -11z m245 -73 c31 -33 33 -40 28 -87 -3 -41 -10 -56
-36 -79 -41 -37 -51 -35 -51 7 0 25 4 35 15 35 23 0 38 41 28 79 l-9 33 -64 0
-64 0 -9 -33 c-10 -38 5 -79 28 -79 8 0 15 -7 15 -15 0 -8 -4 -15 -9 -15 -5 0
-16 7 -25 15 -22 22 -32 18 -11 -5 10 -11 24 -20 32 -20 7 0 13 -7 13 -15 0
-22 -16 -18 -51 13 -25 23 -33 38 -36 78 -5 44 -2 54 23 83 35 42 59 52 109
46 30 -3 48 -13 74 -41z"/>
</g>
</svg>
