<?xml version="1.0" standalone="no"?>
<!DOCTYPE svg PUBLIC "-//W3C//DTD SVG 20010904//EN"
 "http://www.w3.org/TR/2001/REC-SVG-20010904/DTD/svg10.dtd">
<svg version="1.0" xmlns="http://www.w3.org/2000/svg"
 width="28px" height="28px" viewBox="0 0 32.000000 32.000000"
 preserveAspectRatio="xMidYMid meet">

<g transform="translate(0.000000,32.000000) scale(0.100000,-0.100000)"
fill="#ffffff" stroke="none">
<path d="M95 306 c-101 -44 -125 -178 -46 -257 61 -61 151 -65 216 -8 134 118
-6 336 -170 265z m55 -31 c0 -32 -2 -35 -30 -35 -33 0 -35 2 -19 32 8 15 8 19
-1 13 -6 -4 -15 -18 -20 -31 -6 -14 -18 -24 -30 -24 -17 0 -18 3 -8 19 12 19
68 57 68 46 0 -3 8 -1 18 4 9 6 18 11 20 11 1 0 2 -16 2 -35z m60 20 c0 11 57
-27 68 -46 10 -16 9 -19 -8 -19 -12 0 -24 10 -30 24 -5 13 -14 27 -20 31 -9 6
-9 2 -1 -13 16 -30 14 -32 -19 -32 -28 0 -30 3 -30 35 0 33 2 35 20 25 11 -6
20 -8 20 -5z m-60 -95 c0 -28 -2 -30 -40 -30 -42 0 -43 1 -34 38 5 17 14 22
40 22 31 0 34 -3 34 -30z m90 23 c0 -5 3 -18 6 -30 6 -21 3 -23 -35 -23 -39 0
-41 2 -41 30 0 28 3 30 35 30 19 0 35 -3 35 -7z m-178 -28 c-3 -18 -11 -25
-27 -25 -18 0 -21 4 -17 25 3 18 11 25 27 25 18 0 21 -4 17 -25z m240 0 c4
-21 1 -25 -17 -25 -16 0 -24 7 -27 25 -4 21 -1 25 17 25 16 0 24 -7 27 -25z
m-240 -70 c4 -21 1 -25 -17 -25 -16 0 -24 7 -27 25 -4 21 -1 25 17 25 16 0 24
-7 27 -25z m88 -5 c0 -28 -3 -30 -35 -30 -19 0 -35 3 -35 8 0 4 -3 17 -6 30
-6 20 -3 22 35 22 39 0 41 -2 41 -30z m100 23 c-1 -38 -14 -53 -46 -53 -31 0
-34 3 -34 30 0 28 2 30 40 30 22 0 40 -3 40 -7z m52 -18 c-3 -18 -11 -25 -27
-25 -18 0 -21 4 -17 25 3 18 11 25 27 25 18 0 21 -4 17 -25z m-222 -59 c5 -13
14 -27 20 -31 9 -6 9 -2 1 13 -16 30 -14 32 19 32 28 0 30 -3 30 -35 0 -33 -2
-35 -20 -25 -11 6 -20 8 -20 5 0 -11 -57 27 -68 46 -10 16 -9 19 8 19 12 0 24
-10 30 -24z m198 5 c-11 -19 -68 -57 -68 -46 0 3 -9 1 -20 -5 -18 -10 -20 -8
-20 25 0 32 2 35 30 35 33 0 35 -2 19 -32 -8 -15 -8 -19 1 -13 6 4 15 18 20
31 6 14 18 24 30 24 17 0 18 -3 8 -19z"/>
</g>
</svg>
