<?xml version="1.0" standalone="no"?>
<!DOCTYPE svg PUBLIC "-//W3C//DTD SVG 20010904//EN"
 "http://www.w3.org/TR/2001/REC-SVG-20010904/DTD/svg10.dtd">
<svg version="1.0" xmlns="http://www.w3.org/2000/svg"
 width="30px" height="30px" viewBox="0 0 32.000000 32.000000"
 preserveAspectRatio="xMidYMid meet">

<g transform="translate(0.000000,32.000000) scale(0.100000,-0.100000)"
fill="#ffffff" stroke="none">
<path d="M42 310 c-34 -14 -44 -55 -40 -167 4 -139 3 -138 158 -138 101 0 122
3 137 18 15 15 18 36 18 137 0 156 1 154 -143 157 -59 2 -117 -2 -130 -7z
m198 -70 c16 -16 20 -33 20 -80 0 -82 -18 -100 -100 -100 -82 0 -100 18 -100
100 0 82 18 100 100 100 47 0 64 -4 80 -20z"/>
<path d="M92 228 c-16 -16 -16 -120 0 -136 16 -16 120 -16 136 0 7 7 12 37 12
68 0 31 -5 61 -12 68 -16 16 -120 16 -136 0z m128 -18 c0 -5 -4 -10 -10 -10
-5 0 -7 -13 -4 -28 10 -50 -45 -82 -80 -46 -36 35 -4 90 46 80 15 -3 28 -1 28
4 0 6 5 10 10 10 6 0 10 -4 10 -10z"/>
<path d="M134 176 c-10 -26 4 -48 28 -44 17 2 23 10 23 28 0 18 -6 26 -23 28
-13 2 -25 -3 -28 -12z"/>
</g>
</svg>
